<!-- Created with Inkscape (http://www.inkscape.org/) -->
<svg xmlns:rdf="http://www.w3.org/1999/02/22-rdf-syntax-ns#" xmlns="http://www.w3.org/2000/svg" height="80" width="276.38" version="1.1" xmlns:cc="http://creativecommons.org/ns#" xmlns:dc="http://purl.org/dc/elements/1.1/">
<metadata>
<rdf:RDF>
<cc:Work rdf:about="">
<dc:format>image/svg+xml</dc:format>
<dc:type rdf:resource="http://purl.org/dc/dcmitype/StillImage"/>
<dc:title/>
</cc:Work>
</rdf:RDF>
</metadata>
<g transform="translate(-60,-12.36218)">
<path style="text-align:center;" d="M40,0c-22.091,0-40,17.909-40,40s17.909,40,40,40,40-17.909,40-40-17.909-40-40-40zm0,15c13.807,0,25,11.193,25,25s-11.193,25-25,25-25-11.193-25-25,11.193-25,25-25zm95.5,0v6.125h6.47v-6.125h-6.47zm113.75,0v49.344h7.63l0.59-3.844c0.86,1.455,1.9,2.595,3.12,3.375,1.23,0.759,2.67,1.125,4.32,1.125,3.75,0,6.59-1.537,8.53-4.594,1.96-3.057,2.93-7.147,2.94-12.312v-0.688c-0.01-5.46-0.98-9.815-2.94-13.062-1.94-3.247-4.79-4.844-8.56-4.844-1.44,0-2.73,0.305-3.85,0.938-1.12,0.632-2.08,1.538-2.91,2.718v-18.156h-8.87zm-149.25,3.281v46.063h6.41v-18.156h8.56c4.36,0,7.78-1.293,10.25-3.844,2.49-2.551,3.72-5.898,3.72-10.094,0-4.175-1.23-7.543-3.72-10.094-2.47-2.572-5.89-3.875-10.25-3.875h-14.97zm78.22,0v46.063h8.9v-19.219h14.85v19.219h8.87v-46.063h-8.87v19.907h-14.85v-19.907h-8.9zm-138.22,1.719c-11.046,0-20,8.954-20,20s8.954,20,20,20,20-8.954,20-20-8.954-20-20-20zm66.41,3.219h8.56c2.51,0,4.39,0.865,5.65,2.593,1.29,1.729,1.94,3.907,1.94,6.5,0,2.573-0.65,4.699-1.94,6.407-1.28,1.686-3.16,2.531-5.65,2.531h-8.56v-18.031zm-61.41,1.781c5.523,0,10,4.477,10,10s-4.477,10-10,10-10-4.477-10-10,4.477-10,10-10zm0,2c-4.418,0-8,3.582-8,8s3.582,8,8,8,8-3.582,8-8-3.582-8-8-8zm0,3c2.761,0,5,2.239,5,5s-2.239,5-5,5-5-2.239-5-5,2.239-5,5-5zm90.5,0.125v34.219h6.47v-34.219h-6.47zm11.97,0l9.25,16.875-9.53,17.344h7.34l5.75-12.906h0.19l5.78,12.906h7.34l-9.59-17.344,9.28-16.875h-7.4l-5.5,12.469h-0.19l-5.44-12.469h-7.28zm69.69,0v19.719c0,5.165,0.87,9.002,2.62,11.468,1.77,2.467,4.17,3.688,7.25,3.688,1.79,0,3.37-0.489,4.72-1.438,1.37-0.969,2.5-2.322,3.41-4.093l1,4.875h7.31v-34.219h-8.97v25.563c-0.55,0.759-1.22,1.349-2,1.75-0.78,0.379-1.69,0.562-2.72,0.562-1.28,0-2.23-0.559-2.84-1.719-0.59-1.18-0.88-3.318-0.88-6.375v-19.781h-8.9zm45.43,6.375c1.86,0,3.12,0.956,3.82,2.875,0.69,1.919,1.06,4.595,1.06,8.031v0.688c0,3.247-0.36,5.688-1.03,7.375-0.68,1.686-1.94,2.531-3.82,2.531-1.07,0-1.98-0.203-2.71-0.625-0.74-0.443-1.34-1.104-1.79-1.969v-15.906c0.45-0.949,1.05-1.692,1.79-2.219,0.76-0.527,1.65-0.781,2.68-0.781z" transform="translate(60,12.36218)"/>
</g>
</svg>
