<?xml version="1.0" encoding="UTF-8" standalone="no"?>
<!-- Created with Inkscape (http://www.inkscape.org/) -->

<svg
   xmlns:dc="http://purl.org/dc/elements/1.1/"
   xmlns:cc="http://creativecommons.org/ns#"
   xmlns:rdf="http://www.w3.org/1999/02/22-rdf-syntax-ns#"
   xmlns:svg="http://www.w3.org/2000/svg"
   xmlns="http://www.w3.org/2000/svg"
   xmlns:xlink="http://www.w3.org/1999/xlink"
   xmlns:sodipodi="http://sodipodi.sourceforge.net/DTD/sodipodi-0.dtd"
   xmlns:inkscape="http://www.inkscape.org/namespaces/inkscape"
   height="80"
   width="276.38"
   version="1.1"
   id="svg2"
   inkscape:version="0.48.5 r10040"
   sodipodi:docname="logo5.svg">
  <sodipodi:namedview
     pagecolor="#ffffff"
     bordercolor="#666666"
     borderopacity="1"
     objecttolerance="10"
     gridtolerance="10"
     guidetolerance="10"
     inkscape:pageopacity="0"
     inkscape:pageshadow="2"
     inkscape:window-width="1920"
     inkscape:window-height="1016"
     id="namedview10"
     showgrid="false"
     inkscape:snap-bbox="false"
     inkscape:zoom="1.1613793"
     inkscape:cx="449.35476"
     inkscape:cy="-145.87909"
     inkscape:window-x="0"
     inkscape:window-y="0"
     inkscape:window-maximized="1"
     inkscape:current-layer="svg2"
     showguides="true"
     inkscape:guide-bbox="true">
    <inkscape:grid
       id="grid2989"
       type="xygrid" />
  </sodipodi:namedview>
  <defs
     id="defs12">
    <linearGradient
       inkscape:collect="always"
       id="linearGradient3946">
      <stop
         style="stop-color:#cccccc;stop-opacity:1;"
         offset="0"
         id="stop3948" />
      <stop
         style="stop-color:#cccccc;stop-opacity:0;"
         offset="1"
         id="stop3950" />
    </linearGradient>
    <linearGradient
       inkscape:collect="always"
       id="linearGradient3938">
      <stop
         style="stop-color:#cccccc;stop-opacity:1;"
         offset="0"
         id="stop3940" />
      <stop
         style="stop-color:#cccccc;stop-opacity:0;"
         offset="1"
         id="stop3942" />
    </linearGradient>
    <linearGradient
       inkscape:collect="always"
       id="linearGradient3897">
      <stop
         style="stop-color:#cccccc;stop-opacity:1;"
         offset="0"
         id="stop3899" />
      <stop
         style="stop-color:#cccccc;stop-opacity:0;"
         offset="1"
         id="stop3901" />
    </linearGradient>
    <linearGradient
       inkscape:collect="always"
       xlink:href="#linearGradient3897"
       id="linearGradient3903"
       x1="619.95251"
       y1="-2.6603343"
       x2="453.34027"
       y2="418.82129"
       gradientUnits="userSpaceOnUse"
       gradientTransform="translate(248.84204,163.59857)" />
    <linearGradient
       inkscape:collect="always"
       xlink:href="#linearGradient3938"
       id="linearGradient3944"
       x1="542.02789"
       y1="196.2411"
       x2="483.90735"
       y2="373.61639"
       gradientUnits="userSpaceOnUse" />
    <linearGradient
       inkscape:collect="always"
       xlink:href="#linearGradient3946"
       id="linearGradient3952"
       x1="563.55402"
       y1="191.93587"
       x2="508.01663"
       y2="363.71436"
       gradientUnits="userSpaceOnUse" />
  </defs>
  <metadata
     id="metadata4">
    <rdf:RDF>
      <cc:Work
         rdf:about="">
        <dc:format>image/svg+xml</dc:format>
        <dc:type
           rdf:resource="http://purl.org/dc/dcmitype/StillImage" />
        <dc:title />
      </cc:Work>
    </rdf:RDF>
  </metadata>
  <g
     id="g4002"
     transform="matrix(-0.43889671,-0.10731255,-0.10731255,0.43889671,985.33537,219.55515)"
     style="opacity:0.71052632">
    <path
       sodipodi:nodetypes="cccccccccc"
       inkscape:connector-curvature="0"
       id="path4004"
       d="m 700.65625,162.28125 -142.8125,34.5 48.97399,96.05117 160.29069,-60.45994 z m -2.46875,5.4375 57.59375,61.53125 -145.375,53.4375 L 568.0625,200.75 z"
       style="fill:#cccccc;stroke:#ffffff;stroke-width:1" />
    <path
       sodipodi:nodetypes="ccccc"
       style="fill:#ffffff;stroke:#ffffff;stroke-width:4.50000000000000000;stroke-linecap:butt;stroke-linejoin:miter;stroke-miterlimit:4;stroke-opacity:1;stroke-dasharray:none"
       d="m 568.05267,200.75213 42.34359,81.9386 145.39386,-53.43469 -57.61767,-61.52423 z"
       id="path4006"
       inkscape:connector-curvature="0" />
    <path
       id="path4008"
       d="m 683.09375,217.9375 -17.53125,35.09375 0.40625,9.21875 89.8125,-33 -6.65625,-7.125 -66.03125,-4.1875 z"
       style="fill:#cccccc;stroke:none"
       inkscape:connector-curvature="0" />
    <path
       id="path4010"
       d="m 625,227.03125 c 0,0 -18.94491,17.81303 -29.21875,27.3125 l 14.625,28.34375 101.5,-37.3125 L 625,227.03125 z"
       style="fill:#cccccc;stroke:none"
       inkscape:connector-curvature="0" />
    <path
       d="m 695.72444,194.30374 c 0,7.01425 -7.71006,12.70042 -17.2209,12.70042 -9.51084,0 -17.2209,-5.68617 -17.2209,-12.70042 0,-7.01424 7.71006,-12.70041 17.2209,-12.70041 9.51084,0 17.2209,5.68617 17.2209,12.70041 z"
       sodipodi:ry="12.700416"
       sodipodi:rx="17.220903"
       sodipodi:cy="194.30374"
       sodipodi:cx="678.50354"
       id="path4012"
       style="fill:#cccccc;fill-opacity:1;stroke:none"
       sodipodi:type="arc" />
  </g>
  <g
     transform="matrix(0.19503445,-0.63599181,-0.63599181,-0.19503445,758.90819,688.64372)"
     id="g3978"
     style="opacity:0.69736842">
    <path
       style="fill:#cccccc;stroke:#ffffff;stroke-width:1"
       d="m 700.65625,162.28125 -142.8125,34.5 48.97399,96.05117 160.29069,-60.45994 z m -2.46875,5.4375 57.59375,61.53125 -145.375,53.4375 L 568.0625,200.75 z"
       id="path3980"
       inkscape:connector-curvature="0"
       sodipodi:nodetypes="cccccccccc" />
    <path
       inkscape:connector-curvature="0"
       id="path3982"
       d="m 568.05267,200.75213 42.34359,81.9386 145.39386,-53.43469 -57.61767,-61.52423 z"
       style="fill:#ffffff;stroke:#ffffff;stroke-width:4.50000000000000000;stroke-linecap:butt;stroke-linejoin:miter;stroke-miterlimit:4;stroke-opacity:1;stroke-dasharray:none"
       sodipodi:nodetypes="ccccc" />
    <path
       inkscape:connector-curvature="0"
       style="fill:#cccccc;stroke:none"
       d="m 683.09375,217.9375 -17.53125,35.09375 0.40625,9.21875 89.8125,-33 -6.65625,-7.125 -66.03125,-4.1875 z"
       id="path3984" />
    <path
       inkscape:connector-curvature="0"
       style="fill:#cccccc;stroke:none"
       d="m 625,227.03125 c 0,0 -18.94491,17.81303 -29.21875,27.3125 l 14.625,28.34375 101.5,-37.3125 L 625,227.03125 z"
       id="path3986" />
    <path
       sodipodi:type="arc"
       style="fill:#cccccc;fill-opacity:1;stroke:none"
       id="path3988"
       sodipodi:cx="678.50354"
       sodipodi:cy="194.30374"
       sodipodi:rx="17.220903"
       sodipodi:ry="12.700416"
       d="m 695.72444,194.30374 c 0,7.01425 -7.71006,12.70042 -17.2209,12.70042 -9.51084,0 -17.2209,-5.68617 -17.2209,-12.70042 0,-7.01424 7.71006,-12.70041 17.2209,-12.70041 9.51084,0 17.2209,5.68617 17.2209,12.70041 z" />
  </g>
  <g
     id="g3966"
     transform="matrix(0.19503445,0.63599181,-0.63599181,0.19503445,611.66947,-353.95588)">
    <path
       sodipodi:nodetypes="cccccccccc"
       inkscape:connector-curvature="0"
       id="path3968"
       d="m 700.65625,162.28125 -142.8125,34.5 48.97399,96.05117 160.29069,-60.45994 z m -2.46875,5.4375 57.59375,61.53125 -145.375,53.4375 L 568.0625,200.75 z"
       style="fill:#cccccc;stroke:#ffffff;stroke-width:1" />
    <path
       sodipodi:nodetypes="ccccc"
       style="fill:#ffffff;stroke:#ffffff;stroke-width:4.5;stroke-linecap:butt;stroke-linejoin:miter;stroke-miterlimit:4;stroke-opacity:1;stroke-dasharray:none"
       d="m 568.05267,200.75213 42.34359,81.9386 145.39386,-53.43469 -57.61767,-61.52423 z"
       id="path3970"
       inkscape:connector-curvature="0" />
    <path
       id="path3972"
       d="m 683.09375,217.9375 -17.53125,35.09375 0.40625,9.21875 89.8125,-33 -6.65625,-7.125 -66.03125,-4.1875 z"
       style="fill:#cccccc;stroke:none"
       inkscape:connector-curvature="0" />
    <path
       id="path3974"
       d="m 625,227.03125 c 0,0 -18.94491,17.81303 -29.21875,27.3125 l 14.625,28.34375 101.5,-37.3125 L 625,227.03125 z"
       style="fill:#cccccc;stroke:none"
       inkscape:connector-curvature="0" />
    <path
       d="m 695.72444,194.30374 c 0,7.01425 -7.71006,12.70042 -17.2209,12.70042 -9.51084,0 -17.2209,-5.68617 -17.2209,-12.70042 0,-7.01424 7.71006,-12.70041 17.2209,-12.70041 9.51084,0 17.2209,5.68617 17.2209,12.70041 z"
       sodipodi:ry="12.700416"
       sodipodi:rx="17.220903"
       sodipodi:cy="194.30374"
       sodipodi:cx="678.50354"
       id="path3976"
       style="fill:#cccccc;fill-opacity:1;stroke:none"
       sodipodi:type="arc" />
  </g>
  <rect
     style="fill:#2d2d2d;fill-opacity:1;stroke:none"
     id="rect3033"
     width="80"
     height="80"
     x="260"
     y="205" />
  <path
     sodipodi:type="arc"
     style="opacity:0.3;fill:#000000;fill-opacity:1;stroke:none"
     id="path3912"
     sodipodi:cx="-29.647303"
     sodipodi:cy="337.29623"
     sodipodi:rx="23.899355"
     sodipodi:ry="10.134537"
     d="m -5.7479477,337.29623 a 23.899355,10.134537 0 1 1 -47.7987103,0 23.899355,10.134537 0 1 1 47.7987103,0 z"
     transform="matrix(1.664557,0,0,1.6716419,2.3072214,-220.34052)"
     inkscape:export-filename="/srv/http/PixHub/public/img/signin.png"
     inkscape:export-xdpi="232.51337"
     inkscape:export-ydpi="232.51337" />
  <path
     style="fill:#333333;stroke:none"
     d="M -39.90625 210.5 C -61.721498 210.5 -79.40625 228.29668 -79.40625 250.25 C -79.40625 258.13167 -77.119214 265.47733 -73.1875 271.65625 C -74.526816 271.88964 -75.749968 272.83887 -75.40625 274.4375 C -75.093276 275.89314 -73.722666 278.18701 -70.5 279.0625 C -69.23792 279.40536 -71.231607 279.37364 -73.34375 278.6875 C -74.681309 278.25299 -75.477179 275.9115 -77.59375 275.46875 C -79.232577 275.12594 -80.80788 277.75686 -79.53125 279.5 C -76.104862 282.67094 -75.57972 284.68923 -73.15625 285.53125 C -71.453992 286.1153 -71.286556 286.59564 -69.5 286.8125 C -66.944899 287.12266 -66.810082 286.21538 -65.625 285.9375 C -63.538621 290.51514 -65.506617 294.45105 -64.25 299.0625 C -64.16135 299.38783 -64.091517 299.72913 -64.03125 300.0625 C -66.67735 299.60587 -69.516291 299.94313 -72.71875 301.1875 C -77.296586 302.96631 -81.275141 305.77657 -83 310.375 C -85.752077 317.71198 -84.369686 326.90687 -89.21875 333.0625 C -92.694506 337.47479 -102.35197 335.80836 -103.96875 341.1875 C -104.89601 344.27256 -98.742882 346.27883 -95.625 345.46875 C -87.582815 343.37925 -80.621777 347.73801 -77 340.5625 C -75.47594 337.54301 -79.810578 335.77946 -79.5625 332.40625 C -79.087697 325.95019 -77.184949 316.23309 -70.8125 315.09375 C -69.370069 314.83585 -67.67799 316.06403 -65.90625 318.03125 C -68.229623 326.10995 -66.888049 334.8946 -63.53125 343.78125 C -62.120121 347.51701 -65.227886 347.82169 -69.0625 351.46875 C -71.982497 354.24593 -74.613829 355.91547 -75.09375 359.15625 C -75.41622 361.3338 -71.838518 364.46068 -69.75 365.15625 C -65.849604 366.45524 -56.440821 363.24621 -55.40625 358.5 C -54.5374 354.51405 -49.56419 350.98384 -51.96875 348.6875 C -57.971834 342.95461 -55.813597 335.10464 -54.3125 330.4375 C -50.487971 332.34596 -47.458642 336.53998 -44.53125 339.90625 C -40.438169 344.61296 -34.784635 345.36695 -29.5 344.625 C -24.682113 343.94858 -20.300779 340.62315 -17.125 336.9375 C -11.84806 330.81335 -8.3944812 322.69063 -7.5 314.65625 C -6.8172928 308.52406 -7.3658317 301.52199 -10.90625 296.46875 C -13.610114 292.60952 -21.524782 293.15535 -25.4375 290.375 C -24.927119 289.31565 -24.514254 288.20186 -24.1875 287.0625 C -24.160272 286.96756 -24.02649 286.80393 -23.84375 286.59375 C -10.028753 280.40276 -0.40625 266.45167 -0.40625 250.25 C -0.40625 228.29668 -18.091002 210.5 -39.90625 210.5 z M -59.65625 284.65625 C -53.841632 288.04587 -47.109502 290 -39.90625 290 C -39.117823 290 -38.339497 289.95205 -37.5625 289.90625 C -36.572399 290.75562 -36.115892 291.1105 -36.75 291.9375 C -45.545169 290.81644 -52.524942 301.68908 -55.5 297.375 C -57.208577 294.3821 -57.871456 287.79028 -59.65625 284.65625 z M -47.59375 304.0625 C -47.59375 304.0625 -46.515794 307.93076 -47.90625 311.78125 C -49.296707 315.63175 -49.53125 315.625 -49.53125 315.625 L -53.0625 309.53125 L -55.625 306.21875 C -53.19018 306.70137 -50.596018 306.41712 -47.59375 304.0625 z "
     id="path3905"
     inkscape:export-filename="/srv/http/PixHub/public/img/signin.png"
     inkscape:export-xdpi="232.51337"
     inkscape:export-ydpi="232.51337" />
  <path
     style="text-align:center"
     d="M 40,0 C 17.90861,0 0,17.90861 0,40 0,62.09139 17.90861,80 40,80 62.09139,80 80,62.09139 80,40 80,17.90861 62.09139,0 40,0 z m 0,9 C 57.13524,9 71.0625,23.006307 71.0625,40.25 71.0625,57.493693 57.13524,71.5 40,71.5 22.864758,71.5 8.9375,57.493693 8.9375,40.25 8.9375,23.006307 22.864758,9 40,9 z m 0,3 C 24.480972,12 11.9375,24.63275 11.9375,40.25 11.9375,55.86725 24.480972,68.5 40,68.5 55.51903,68.5 68.0625,55.86725 68.0625,40.25 68.0625,24.63275 55.51903,12 40,12 z m 0,3 C 53.85128,15 65.09375,26.309867 65.09375,40.25 65.09375,54.190133 53.85128,65.5 40,65.5 26.148718,65.5 14.90625,54.190133 14.90625,40.25 14.90625,26.309867 26.148718,15 40,15 z m 95.5,0 0,6.125 6.46875,0 0,-6.125 -6.46875,0 z m 113.75,0 0,49.34375 7.625,0 0.59375,-3.84375 c 0.86,1.455 1.905,2.595 3.125,3.375 1.23,0.759 2.6625,1.125 4.3125,1.125 3.75,0 6.59125,-1.53675 8.53125,-4.59375 1.96,-3.057 2.9275,-7.1475 2.9375,-12.3125 l 0,-0.6875 c -0.01,-5.46 -0.9775,-9.8155 -2.9375,-13.0625 -1.94,-3.247 -4.7925,-4.84375 -8.5625,-4.84375 -1.44,0 -2.72375,0.3045 -3.84375,0.9375 -1.12,0.632 -2.07625,1.53875 -2.90625,2.71875 L 258.125,15 249.25,15 z M 40,16 C 26.687433,16 15.90625,26.852038 15.90625,40.25 15.90625,53.647962 26.687433,64.5 40,64.5 53.31257,64.5 64.09375,53.647962 64.09375,40.25 64.09375,26.852038 53.31257,16 40,16 z m 60,2.28125 0,46.0625 6.40625,0 0,-18.15625 8.5625,0 c 4.36,0 7.78,-1.29275 10.25,-3.84375 2.49,-2.551 3.71875,-5.89775 3.71875,-10.09375 0,-4.175 -1.22875,-7.54275 -3.71875,-10.09375 -2.47,-2.572 -5.89,-3.875 -10.25,-3.875 l -14.96875,0 z m 78.21875,0 0,46.0625 8.90625,0 0,-19.21875 14.84375,0 0,19.21875 8.875,0 0,-46.0625 -8.875,0 0,19.90625 -14.84375,0 0,-19.90625 -8.90625,0 z M 35.5625,20.5 33.78125,33.1875 52.46875,24.375 41.4375,30.90625 60,40 48,35.46875 52.46875,55.625 48.5625,43.4375 35.5625,59.5 42.65625,48.8125 21.96875,48.6875 34.75,47.5625 21.96875,31.3125 30.8125,40.625 35.5625,20.5 z m 70.84375,2.71875 8.5625,0 c 2.51,0 4.39625,0.86575 5.65625,2.59375 1.29,1.729 1.9375,3.907 1.9375,6.5 0,2.573 -0.6475,4.69825 -1.9375,6.40625 -1.28,1.686 -3.16625,2.53125 -5.65625,2.53125 l -8.5625,0 0,-18.03125 z M 135.5,30.125 l 0,34.21875 6.46875,0 0,-34.21875 -6.46875,0 z m 11.96875,0 9.25,16.875 -9.53125,17.34375 7.34375,0 5.75,-12.90625 0.1875,0 5.78125,12.90625 7.34375,0 L 164,47 l 9.28125,-16.875 -7.40625,0 -5.5,12.46875 -0.1875,0 -5.4375,-12.46875 -7.28125,0 z m 69.6875,0 0,19.71875 c 0,5.165 0.875,9.00275 2.625,11.46875 1.77,2.467 4.17,3.6875 7.25,3.6875 1.79,0 3.36875,-0.4885 4.71875,-1.4375 1.37,-0.969 2.49625,-2.32275 3.40625,-4.09375 l 1,4.875 7.3125,0 0,-34.21875 -8.96875,0 0,25.5625 c -0.55,0.759 -1.22,1.349 -2,1.75 -0.78,0.379 -1.68875,0.5625 -2.71875,0.5625 -1.28,0 -2.23375,-0.55875 -2.84375,-1.71875 -0.59,-1.18 -0.875,-3.318 -0.875,-6.375 l 0,-19.78125 -8.90625,0 z m 45.4375,6.375 c 1.86,0 3.1125,0.956 3.8125,2.875 0.69,1.919 1.0625,4.59525 1.0625,8.03125 l 0,0.6875 c 0,3.247 -0.36125,5.688 -1.03125,7.375 -0.68,1.686 -1.9325,2.53125 -3.8125,2.53125 -1.07,0 -1.98875,-0.203 -2.71875,-0.625 -0.74,-0.443 -1.33125,-1.10375 -1.78125,-1.96875 l 0,-15.90625 c 0.45,-0.949 1.04125,-1.69175 1.78125,-2.21875 0.76,-0.527 1.6575,-0.78125 2.6875,-0.78125 z"
     id="path8"
     inkscape:connector-curvature="0" />
  <path
     sodipodi:nodetypes="ccccccccccsccccsccccccccscscscccccccccccccccscscscccccccccccccccccccccccscsccccccccscsccscsscsccccs"
     inkscape:connector-curvature="0"
     id="path3767"
     d="m 135.5,103.812 0,6.125 6.47,0 0,-6.125 z m 113.75,0 0,49.344 7.63,0 0.59,-3.844 c 0.86,1.455 1.9,2.595 3.12,3.375 1.23,0.759 2.67,1.125 4.32,1.125 3.75,0 6.59,-1.537 8.53,-4.594 1.96,-3.057 2.93,-7.147 2.94,-12.312 l 0,-0.688 c -0.01,-5.46 -0.98,-9.815 -2.94,-13.062 -1.94,-3.247 -4.79,-4.844 -8.56,-4.844 -1.44,0 -2.73,0.305 -3.85,0.938 -1.12,0.632 -2.08,1.538 -2.91,2.718 l 0,-18.156 z m -149.25,3.281 0,46.063 6.41,0 0,-18.156 8.56,0 c 4.36,0 7.78,-1.293 10.25,-3.844 2.49,-2.551 3.72,-5.898 3.72,-10.094 0,-4.175 -1.23,-7.543 -3.72,-10.094 -2.47,-2.572 -5.89,-3.875 -10.25,-3.875 z m 78.22,0 0,46.063 8.9,0 0,-19.219 14.85,0 0,19.219 8.87,0 0,-46.063 -8.87,0 0,19.907 -14.85,0 0,-19.907 z m -71.81,4.938 8.56,0 c 2.51,0 4.39,0.865 5.65,2.593 1.29,1.729 1.94,3.907 1.94,6.5 0,2.573 -0.65,4.699 -1.94,6.407 -1.28,1.686 -3.16,2.531 -5.65,2.531 l -8.56,0 z m 29.09,6.906 0,34.219 6.47,0 0,-34.219 z m 11.97,0 9.25,16.875 -9.53,17.344 7.34,0 5.75,-12.906 0.19,0 5.78,12.906 7.34,0 -9.59,-17.344 9.28,-16.875 -7.4,0 -5.5,12.469 -0.19,0 -5.44,-12.469 z m 69.69,0 0,19.719 c 0,5.165 0.87,9.002 2.62,11.468 1.77,2.467 4.17,3.688 7.25,3.688 1.79,0 3.37,-0.489 4.72,-1.438 1.37,-0.969 2.5,-2.322 3.41,-4.093 l 1,4.875 7.31,0 0,-34.219 -8.97,0 0,25.563 c -0.55,0.759 -1.22,1.349 -2,1.75 -0.78,0.379 -1.69,0.562 -2.72,0.562 -1.28,0 -2.23,-0.559 -2.84,-1.719 -0.59,-1.18 -0.88,-3.318 -0.88,-6.375 l 0,-19.781 z m 45.43,6.375 c 1.86,0 3.12,0.956 3.82,2.875 0.69,1.919 1.06,4.595 1.06,8.031 l 0,0.688 c 0,3.247 -0.36,5.688 -1.03,7.375 -0.68,1.686 -1.94,2.531 -3.82,2.531 -1.07,0 -1.98,-0.203 -2.71,-0.625 -0.74,-0.443 -1.34,-1.104 -1.79,-1.969 l 0,-15.906 c 0.45,-0.949 1.05,-1.692 1.79,-2.219 0.76,-0.527 1.65,-0.781 2.68,-0.781 z"
     style="text-align:center" />
  <path
     transform="matrix(0.9875,0,0,0.99375,0.5,89.312)"
     d="M 80,40 A 40,40 0 1 1 0,40 40,40 0 1 1 80,40 z"
     sodipodi:ry="40"
     sodipodi:rx="40"
     sodipodi:cy="40"
     sodipodi:cx="40"
     id="path3769"
     style="fill:#000000;stroke:#ffffff;stroke-width:1.00946879;stroke-linecap:round;stroke-linejoin:round;stroke-miterlimit:4;stroke-opacity:1;stroke-dasharray:none;stroke-dashoffset:0"
     sodipodi:type="arc" />
  <path
     sodipodi:type="arc"
     style="fill:#000000;stroke:#ffffff;stroke-width:4.04635811;stroke-linecap:round;stroke-linejoin:round;stroke-miterlimit:4;stroke-opacity:1;stroke-dasharray:none;stroke-dashoffset:0"
     id="path3771"
     sodipodi:cx="40"
     sodipodi:cy="40"
     sodipodi:rx="40"
     sodipodi:ry="40"
     d="M 80,40 A 40,40 0 1 1 0,40 40,40 0 1 1 80,40 z"
     transform="matrix(0.73907233,0,0,0.74375,10.437107,99.312)" />
  <path
     transform="matrix(0.61480627,0,0,0.61875,15.40775,104.312)"
     d="M 80,40 A 40,40 0 1 1 0,40 40,40 0 1 1 80,40 z"
     sodipodi:ry="40"
     sodipodi:rx="40"
     sodipodi:cy="40"
     sodipodi:cx="40"
     id="path3773"
     style="fill:#000000;stroke:#ffffff;stroke-width:1.62133694;stroke-linecap:round;stroke-linejoin:round;stroke-miterlimit:4;stroke-opacity:1;stroke-dasharray:none;stroke-dashoffset:0"
     sodipodi:type="arc" />
  <path
     inkscape:transform-center-y="-0.74159249"
     inkscape:transform-center-x="-0.37183597"
     transform="translate(0,88.812)"
     d="M 60,40 48.010223,35.453785 52.469796,55.63663 48.548666,43.428126 35.549581,59.498558 42.64979,48.821018 21.980623,48.677675 34.755567,47.571504 21.980623,31.322325 30.81051,40.620493 35.549581,20.501442 33.785326,33.202238 52.469796,24.36337 41.439918,30.902837 z"
     inkscape:randomized="0"
     inkscape:rounded="0"
     inkscape:flatsided="false"
     sodipodi:arg2="-0.5162186"
     sodipodi:arg1="0"
     sodipodi:r2="9.2104149"
     sodipodi:r1="20"
     sodipodi:cy="40"
     sodipodi:cx="40"
     sodipodi:sides="7"
     id="path3775"
     style="fill:#ffffff;fill-opacity:1;stroke:none"
     sodipodi:type="star" />
  <path
     style="fill:#ffffff;stroke:none"
     d="m -55.3125,242.46875 c -10.07015,0.0165 -16.89394,8.46308 -16.03125,18.9375 0.84798,10.29578 8.97115,19.66687 18.59375,21.6875 10.1111,2.12321 19.26909,-4.3493 20,-15.375 0.7998,-12.0647 -8.65144,-23.87153 -20.5,-25.15625 -0.6989,-0.0758 -1.39116,-0.0949 -2.0625,-0.0937 z m 0.25,2.25 c 0.60541,0.003 1.21403,0.0531 1.84375,0.125 10.6131,1.21115 19.06919,11.69388 18.4375,22.53125 -0.58245,9.99262 -8.76822,15.9244 -17.96875,14.03125 -8.79426,-1.80956 -16.19259,-10.32917 -16.90625,-19.71875 -0.72068,-9.48217 5.51253,-17.0139 14.59375,-16.96875 z m 0.21875,2.21875 c -8.07756,-0.0847 -13.68225,6.57307 -13.09375,15.03125 0.58726,8.44032 7.23432,16.1535 15.15625,17.75 8.25011,1.66263 15.5503,-3.76157 16,-12.6875 0.48331,-9.59302 -7.03581,-18.84748 -16.40625,-19.96875 -0.55931,-0.0669 -1.11775,-0.11935 -1.65625,-0.125 z m 0.09375,0.75 c 0.51681,0.007 1.02586,0.0285 1.5625,0.0937 8.9735,1.09033 16.15797,9.96115 15.71875,19.15625 -0.40988,8.58068 -7.37074,13.77655 -15.3125,12.1875 -7.6372,-1.52812 -14.04555,-8.93142 -14.59375,-17.0625 -0.54798,-8.12795 4.8728,-14.47326 12.625,-14.375 z m -3.75,3.78125 0.375,13.78125 -6.53125,-5.5625 9.84375,9.8125 -7.03125,1.09375 L -50,270 l -2.65625,6.78125 5.5,-10.5 4,7.75 L -48.5625,261 l 8.25,2.46875 -12.96875,-5.1875 6,-5.34375 -10.25,7.3125 -0.96875,-8.78125 z"
     id="path3886"
     inkscape:connector-curvature="0"
     inkscape:export-filename="/srv/http/PixHub/public/img/signin.png"
     inkscape:export-xdpi="232.51337"
     inkscape:export-ydpi="232.51337" />
  <path
     style="font-size:medium;font-style:normal;font-variant:normal;font-weight:normal;font-stretch:normal;text-indent:0;text-align:start;text-decoration:none;line-height:normal;letter-spacing:normal;word-spacing:normal;text-transform:none;direction:ltr;block-progression:tb;writing-mode:lr-tb;text-anchor:start;baseline-shift:baseline;color:#000000;fill:#ffffff;fill-opacity:1;stroke:none;stroke-width:1px;marker:none;visibility:visible;display:inline;overflow:visible;enable-background:accumulate;font-family:Sans;-inkscape-font-specification:Sans"
     d="m -55.84375,312.46875 c -3.203102,-0.33707 -6.370075,1.02738 -9.15625,4.90625 2.431428,-2.25429 5.648144,-4.20112 9.0625,-3.90625 2.869385,0.30195 5.928287,2.09581 8.90625,4.5 2.977963,2.40419 4.705842,4.01657 7.35471,6.57829 1.441707,0.89216 4.788361,4.89679 8.61404,5.89046 -1.740905,-0.62224 -4.117362,-2.67272 -6.75,-5.21875 -2.632638,-2.54603 -5.549208,-5.57331 -8.59375,-8.03125 -3.044542,-2.45794 -6.234398,-4.38168 -9.4375,-4.71875 z"
     id="path3899"
     inkscape:connector-curvature="0"
     sodipodi:nodetypes="sccsccsss"
     inkscape:export-filename="/srv/http/PixHub/public/img/signin.png"
     inkscape:export-xdpi="232.51337"
     inkscape:export-ydpi="232.51337" />
  <path
     style="font-size:medium;font-style:normal;font-variant:normal;font-weight:normal;font-stretch:normal;text-indent:0;text-align:start;text-decoration:none;line-height:normal;letter-spacing:normal;word-spacing:normal;text-transform:none;direction:ltr;block-progression:tb;writing-mode:lr-tb;text-anchor:start;baseline-shift:baseline;color:#000000;fill:#ffffff;fill-opacity:1;fill-rule:nonzero;stroke:none;stroke-width:1;marker:none;visibility:visible;display:inline;overflow:visible;enable-background:accumulate;font-family:Sans;-inkscape-font-specification:Sans"
     d="m -18.75,305.62505 c -5.370514,1.47894 -9.795961,5.38101 -15.306238,6.41965 -2.347598,0.7532 -6.104227,-1.87466 -3.83262,-4.23844 1.563456,-1.94189 3.764477,-3.26449 5.084847,-5.4235 2.762679,-3.71387 5.443072,-7.54544 7.362324,-11.77477 -3.29949,5.30325 -6.572276,10.8429 -11.537925,14.77896 -1.626795,1.39329 -3.766637,3.89854 -1.895388,5.95685 1.49106,2.11298 4.37206,2.07134 6.517632,1.11167 0.959202,-0.34822 1.891294,-0.76537 2.821931,-1.18254 M -40.8125,319.0938 c -3.760516,-0.64258 -6.445634,-4.74368 -5.319701,-8.44819 1.36973,-5.70778 6.130682,-9.56839 9.80758,-13.8376 3.010517,-3.42241 6.189107,-7.62234 5.702082,-12.44176 -0.647246,-3.03518 -2.156526,-6.1443 -1.1495,-9.2837 1.209766,-2.95034 3.667912,-0.86525 5.402491,0.19827 3.498664,-0.01 0.53433,-3.8652 1.407748,-5.65694 0.07956,-2.40241 4.038008,-3.71351 4.242723,-0.70414 -0.01875,1.58958 0.904852,6.23429 2.866069,3.28018 1.353481,-1.81676 1.968,-4.27564 3.884258,-5.60612 2.04794,-1.22169 5.302608,-0.31045 3.7102,2.47182 -1.587639,4.16277 -5.43506,6.9521 -6.995123,11.1318 -1.15482,2.34645 -3.245901,4.09074 -5.554949,5.24302 3.098243,-1.08796 5.759512,-3.23574 7.352236,-6.11748 1.616186,-3.41947 7.003385,-7.648 7.3651527,-12.42778 -0.1271008,-2.75701 -4.0435337,-2.4009 -5.8691417,-1.64453 -2.424229,1.36573 -3.35978,4.77965 -5.070875,6.81185 -0.732382,-2.30837 -0.569797,-7.41103 -4.298795,-6.50792 -2.349428,0.92297 -3.475608,4.73933 -2.479846,7.02995 1.16662,2.59152 -1.677542,1.43556 -2.590953,0.21188 -2.59224,-1.53418 -5.650409,1.30035 -5.181613,3.75288 -0.327016,3.61978 3.002523,7.67486 1.661734,11.27586 -2.060564,6.52482 -7.96341,10.61063 -11.897619,15.9288 -2.447745,3.21408 -4.927597,8.09394 -3.292353,12.12649 1.277126,2.97414 4.752264,4.61259 8.027571,4.31566 7.756124,-0.15329 15.09873,-3.20341 22.0058,-6.48672 1.341636,-0.65649 -1.812455,0.78372 -2.451123,0.9865 -6.152675,2.30593 -12.548012,4.49385 -19.182254,4.6091 -0.704498,-0.0144 -1.410342,-0.0713 -2.101799,-0.21118 z"
     id="path3907"
     inkscape:connector-curvature="0"
     sodipodi:nodetypes="cccccccccccccccccccccccccccccccccccccc"
     inkscape:export-filename="/srv/http/PixHub/public/img/signin.png"
     inkscape:export-xdpi="232.51337"
     inkscape:export-ydpi="232.51337" />
  <path
     style="font-size:medium;font-style:normal;font-variant:normal;font-weight:normal;font-stretch:normal;text-indent:0;text-align:start;text-decoration:none;line-height:normal;letter-spacing:normal;word-spacing:normal;text-transform:none;direction:ltr;block-progression:tb;writing-mode:lr-tb;text-anchor:start;baseline-shift:baseline;color:#000000;fill:#ffffff;fill-opacity:1;stroke:none;stroke-width:1px;marker:none;visibility:visible;display:inline;overflow:visible;enable-background:accumulate;font-family:Sans;-inkscape-font-specification:Sans"
     d="m -55.696889,304.80098 c -2.534351,-3.17455 -8.250588,-4.65104 -8.250588,-4.65104 0,0 4.417469,1.41665 7.327172,5.07453 1.783808,2.24249 4.475826,6.50764 5.168627,8.81539 0.486015,1.61895 2.098759,1.32546 2.098759,1.32546 0,0 -2.950512,-6.31365 -6.34397,-10.56434 z"
     id="path3916"
     inkscape:connector-curvature="0"
     sodipodi:nodetypes="scsscs"
     inkscape:export-filename="/srv/http/PixHub/public/img/signin.png"
     inkscape:export-xdpi="232.51337"
     inkscape:export-ydpi="232.51337" />
  <path
     style="opacity:1;fill:#ffffff;fill-opacity:1;stroke:none"
     d="M -39.375 213.28125 C -46.270767 213.28125 -52.696531 215.20953 -58.15625 218.59375 C -54.43184 217.49667 -50.485968 216.90625 -46.40625 216.90625 C -23.486554 216.90625 -4.90625 235.48655 -4.90625 258.40625 C -4.0902597 255.409 -3.625 252.25578 -3.625 249 C -3.625 229.27016 -19.645157 213.28125 -39.375 213.28125 z "
     id="path3928"
     inkscape:export-filename="/srv/http/PixHub/public/img/signin.png"
     inkscape:export-xdpi="232.51337"
     inkscape:export-ydpi="232.51337" />
  <path
     style="fill:#ff0066;fill-opacity:1;stroke:none"
     d="m -77.446011,246.53918 c 0,3.64335 -1.560662,6.97654 -4.144184,9.54197 -0.609965,0.60569 0.62952,3.69695 4.447503,6.09677 -5.309794,-0.45878 -8.106067,-3.32609 -9.022086,-2.88194 -2.514331,1.21912 -5.424113,1.91559 -8.525072,1.91559 -9.52351,0 -17.24384,-6.56905 -17.24384,-14.67239 0,-8.10333 7.72033,-14.67238 17.24384,-14.67238 9.52351,0 17.243839,6.56905 17.243839,14.67238 z"
     id="path3935"
     inkscape:connector-curvature="0"
     sodipodi:nodetypes="sscsssss"
     transform="matrix(0.9750468,-0.2219994,0.2219994,0.9750468,-67.985212,-24.852424)"
     inkscape:export-filename="/srv/http/PixHub/public/img/signin.png"
     inkscape:export-xdpi="232.51337"
     inkscape:export-ydpi="232.51337" />
  <path
     style="font-size:medium;font-style:normal;font-variant:normal;font-weight:normal;font-stretch:normal;text-indent:0;text-align:start;text-decoration:none;line-height:normal;letter-spacing:normal;word-spacing:normal;text-transform:none;direction:ltr;block-progression:tb;writing-mode:lr-tb;text-anchor:start;baseline-shift:baseline;color:#000000;fill:#ffffff;fill-opacity:1;stroke:none;stroke-width:2.0999999;marker:none;visibility:visible;display:inline;overflow:visible;enable-background:accumulate;font-family:Sans;-inkscape-font-specification:Sans"
     d="m -106.90625,228.6875 c -1.17011,0.0731 -2.21677,0.71255 -2.875,1.59375 -0.76403,1.02283 -1.04927,2.51989 -0.3125,3.8125 a 1.0562777,1.0562777 0 1 0 1.84375,-1.03125 c -0.29544,-0.51833 -0.20834,-1.04316 0.15625,-1.53125 0.36459,-0.48809 0.97191,-0.80513 1.53125,-0.75 a 1.050105,1.050105 0 0 0 0.0625,0 c 0.55071,0.0207 1.22599,0.49701 1.53125,1.125 0.30526,0.62799 0.29622,1.16064 -0.1875,1.59375 -0.75628,0.60975 -1.39647,1.36533 -1.71875,2.28125 -0.33216,0.94401 -0.29788,2.03818 0.1875,3.09375 A 1.0629595,1.0629595 0 1 0 -104.75,238 c -0.29878,-0.64976 -0.31144,-1.0902 -0.15625,-1.53125 0.15519,-0.44105 0.51529,-0.91918 1.09375,-1.375 a 1.050105,1.050105 0 0 0 0.0625,-0.0312 c 1.22733,-1.09894 1.25889,-2.82274 0.65625,-4.0625 -0.5928,-1.21952 -1.76616,-2.19441 -3.25,-2.28125 l 0,-0.0312 c -0.0108,-0.001 -0.0206,9.6e-4 -0.0312,0 -0.0105,-4.9e-4 -0.0208,4e-4 -0.0312,0 -0.17184,-0.0138 -0.33284,-0.0104 -0.5,0 z m 3,11.5625 c -0.7133,0 -1.28125,0.63351 -1.28125,1.40625 0,0.77274 0.56795,1.40625 1.28125,1.40625 0.7133,0 1.28125,-0.63351 1.28125,-1.40625 0,-0.77274 -0.56795,-1.40625 -1.28125,-1.40625 z"
     id="path3942"
     inkscape:export-filename="/srv/http/PixHub/public/img/signin.png"
     inkscape:export-xdpi="232.51337"
     inkscape:export-ydpi="232.51337"
     inkscape:connector-curvature="0" />
  <path
     style="fill:#2d2d2d;fill-opacity:1;stroke:none"
     d="m 89.86297,344.1115 c 2.234401,16.19279 4.697647,28.60324 7.84375,48.40625 0.934047,5.87931 -13.632882,3.29257 -20.5,0.5625 -2.173526,-0.8641 -3.352762,9.53884 -1.28125,10.625 5.744392,3.01194 20.598417,0.1637 28.75,-0.90625 3.13954,-0.41208 3.1704,-8.0534 2.71875,-11.1875 -1.69758,-11.7798 0,-44.1875 0,-44.1875 0.0195,0.0195 3.11919,32.95778 0.90625,44.46875 -0.69298,3.60467 -0.87905,9.6145 2.4375,11.1875 3.71572,1.76232 18.71347,1.72808 27.8125,2.125 1.71563,0.0748 1.58685,-10.50926 -0.0937,-10.15625 -7.29778,1.53292 -22.09989,4.51927 -21.0625,-2.25 2.12081,-13.83887 4.24991,-32.42455 6.03125,-48.6875 1.23167,-11.2447 3.98305,-25.38313 4.21875,-35.375 4.36363,-0.97446 9.58941,-2.2758 12.9375,-3.5625 5.78215,-2.22215 11.8816,-4.5193 16.40625,-8.75 5.58895,-5.22586 12.125,-19.46875 12.125,-19.46875 0,0 2.80021,-0.7658 4.25,-1.71875 2.19824,-1.44489 3.89555,-3.47244 5.15625,-5.78125 0.82583,-1.5124 2.125,-4.71875 2.125,-4.71875 -0.10206,0 2.53425,-3.4038 2.46875,-8 -0.0294,-2.06336 0.2007,-3.69185 -0.96875,-4.0625 -1.44032,-0.45651 -3.47919,1.07603 -3.75,2.5625 -0.63946,3.51005 -1.77698,7.79347 -3.75,5.03125 -0.32345,-1.94191 1.77682,-3.97236 2.6875,-7.625 0.37946,-1.52214 0.73098,-3.97807 -0.0937,-5.3125 -0.58677,-0.94942 -2.13359,-1.44853 -3.21875,-1.1875 -1.6362,0.39358 -1.25371,3.14069 -2.0625,5.71875 -1.1208,3.57261 -1.58957,4.99078 -2.57671,6.26574 0.16558,-2.06077 0.29253,-4.71179 -0.17458,-8.8727 -0.18158,-1.61742 -0.28713,-3.70415 -1.80896,-4.28125 -0.24779,-0.094 -0.53878,-0.15913 -0.84375,-0.15625 -0.91492,0.009 -1.94263,0.45296 -2.15625,1.21875 -0.93859,3.36467 0.34529,16.50929 -2.0335,16.16946 0,0 -0.46133,-3.24643 -1.65625,-4.5625 -1.60858,-1.77165 -4.16211,-1.66529 -4.59375,-0.5625 -0.43164,1.10278 1.3727,9.56536 1.4375,11.53125 0.0648,1.96589 5.8125,6.8125 5.8125,6.8125 0,0 -6.87506,9.8986 -11.5,13.625 -4.53133,3.65097 -9.74891,6.93045 -15.4375,8.15625 -4.38277,0.94443 -11.89935,0.0133 -16.15625,-0.65625 -5.44809,-1.66023 -11.42791,-1.94707 -7.6875,-6.71875 19.81438,-2.81119 35.0625,-19.81552 35.0625,-40.40625 0,-22.55568 -18.28807,-40.84375 -40.84375,-40.84375 l -10e-5,0 c -22.55568,0 -40.84375,18.28807 -40.84375,40.84375 0,20.30047 14.812988,37.11651 34.21875,40.28125 4.42218,6.38892 -4.467114,5.56055 -10.3125,8.15625 -0.196613,0.0873 -0.373404,0.15448 -0.5625,0.25 -0.05174,0.0237 -0.104123,0.0376 -0.15625,0.0625 -6.800469,3.25406 -16.85611,16.8427 -17.625,26 -0.838076,9.98128 9.012356,14.42329 17.203876,15.82543 l -0.901544,-7.1066 c -3.931161,-1.69962 -7.384912,-3.67596 -6.896082,-8.59383 0.319605,-3.21537 2.247257,-7.07366 4.875,-10.6875"
     id="path3005"
     inkscape:connector-curvature="0"
     sodipodi:nodetypes="cssssscsssssscsscsscsssccssscsccscssccssccsscscsccscccc"
     inkscape:export-filename="/srv/http/PixHub/public/img/signin.png"
     inkscape:export-xdpi="176.25049"
     inkscape:export-ydpi="176.25049" />
  <path
     style="font-size:medium;font-style:normal;font-variant:normal;font-weight:normal;font-stretch:normal;text-indent:0;text-align:start;text-decoration:none;line-height:normal;letter-spacing:normal;word-spacing:normal;text-transform:none;direction:ltr;block-progression:tb;writing-mode:lr-tb;text-anchor:start;baseline-shift:baseline;color:#000000;fill:#ff6600;fill-opacity:1;fill-rule:nonzero;stroke:none;stroke-width:4.04635810999999990;marker:none;visibility:visible;display:inline;overflow:visible;enable-background:accumulate;font-family:Sans;-inkscape-font-specification:Sans"
     d="m -48.652738,103.86003 c -17.135242,0 -31.0625,14.00631 -31.0625,31.25 0,17.24369 13.927258,31.25 31.0625,31.25 17.13524,0 31.0625,-14.00631 31.0625,-31.25 0,-17.24369 -13.92725,-31.25 -31.0625,-31.25 z m 0,3 c 15.51902,0 28.0625,12.63275 28.0625,28.25 0,15.61725 -12.54348,28.25 -28.0625,28.25 -15.519028,0 -28.0625,-12.63275 -28.0625,-28.25 0,-15.61725 12.543472,-28.25 28.0625,-28.25 z m 0,3 c -13.851283,0 -25.09375,11.30987 -25.09375,25.25 0,13.94013 11.242467,25.25 25.09375,25.25 13.85128,0 25.09375,-11.30987 25.09375,-25.25 0,-13.94013 -11.24247,-25.25 -25.09375,-25.25 z m 0,1 c 13.31256,0 24.09375,10.85204 24.09375,24.25 0,13.39796 -10.78119,24.25 -24.09375,24.25 -13.312568,0 -24.09375,-10.85204 -24.09375,-24.25 0,-13.39796 10.781182,-24.25 24.09375,-24.25 z m -4.4375,4.5 -4.75,20.125 -8.8125,-9.3125 12.78125,16.25 -12.78125,1.125 20.65625,0.125 -7.09375,10.6875 13,-16.0625 3.90625,12.1875 -4.4375,-20.15625 11.96875,4.53125 -18.53125,-9.09375 11,-6.53125 -18.65625,8.84375 1.75,-12.71875 z"
     id="path3009"
     inkscape:connector-curvature="0" />
  <path
     inkscape:connector-curvature="0"
     id="path3020"
     d="m 106.54182,227.33892 c -12.629398,0 -22.894372,10.32324 -22.894372,23.03256 0,12.70932 10.264974,23.03256 22.894372,23.03256 12.62939,0 22.89436,-10.32324 22.89436,-23.03256 0,-12.70932 -10.26497,-23.03256 -22.89436,-23.03256 z m 0,2.21112 c 11.43817,0 20.68324,9.31087 20.68324,20.82144 0,11.51057 -9.24507,20.82144 -20.68324,20.82144 -11.43818,0 -20.683245,-9.31087 -20.683245,-20.82144 0,-11.51057 9.245065,-20.82144 20.683245,-20.82144 z m 0,2.21113 c -10.208983,0 -18.495152,8.33585 -18.495152,18.61031 0,10.27446 8.286169,18.61031 18.495152,18.61031 10.20898,0 18.49515,-8.33585 18.49515,-18.61031 0,-10.27446 -8.28617,-18.61031 -18.49515,-18.61031 z m 0,0.73705 c 9.81191,0 17.7581,7.99841 17.7581,17.87326 0,9.87485 -7.94619,17.87326 -17.7581,17.87326 -9.811927,0 -17.75811,-7.99841 -17.75811,-17.87326 0,-9.87485 7.946183,-17.87326 17.75811,-17.87326 z m -3.27063,3.31668 -3.500949,14.83297 -6.495182,-6.8637 9.420321,11.97693 -9.420321,0.82917 15.224531,0.0921 -5.2284,7.87713 9.58155,-11.83873 2.87907,8.9827 -3.27062,-14.856 8.82147,3.33972 -13.65831,-6.70248 8.10746,-4.8138 -13.75044,6.51821 1.28982,-9.37424 z"
     style="font-size:medium;font-style:normal;font-variant:normal;font-weight:normal;font-stretch:normal;text-indent:0;text-align:start;text-decoration:none;line-height:normal;letter-spacing:normal;word-spacing:normal;text-transform:none;direction:ltr;block-progression:tb;writing-mode:lr-tb;text-anchor:start;baseline-shift:baseline;color:#000000;fill:#ffffff;fill-opacity:1;fill-rule:nonzero;stroke:none;stroke-width:4.04635811;marker:none;visibility:visible;display:inline;overflow:visible;enable-background:accumulate;font-family:Sans;-inkscape-font-specification:Sans"
     inkscape:export-filename="/srv/http/PixHub/public/img/signin.png"
     inkscape:export-xdpi="176.25049"
     inkscape:export-ydpi="176.25049" />
  <path
     style="fill:none;stroke:#2d2d2d;stroke-width:1;stroke-linecap:round;stroke-linejoin:round;stroke-miterlimit:4;stroke-opacity:1;stroke-dasharray:none"
     d="m 189.37971,263.02671 c 0.0753,6.33055 -2.80551,9.3355 -5.89921,12.10094"
     id="path3811"
     inkscape:connector-curvature="0"
     sodipodi:nodetypes="cc"
     inkscape:export-filename="/srv/http/PixHub/public/img/signin.png"
     inkscape:export-xdpi="176.25049"
     inkscape:export-ydpi="176.25049" />
  <path
     sodipodi:nodetypes="cc"
     inkscape:connector-curvature="0"
     id="path3813"
     d="m 192.10294,266.78777 c 0.0483,4.29455 -1.79865,6.33306 -3.78207,8.20909"
     style="fill:none;stroke:#2d2d2d;stroke-width:1;stroke-linecap:round;stroke-linejoin:round;stroke-miterlimit:4;stroke-opacity:1;stroke-dasharray:none"
     inkscape:export-filename="/srv/http/PixHub/public/img/signin.png"
     inkscape:export-xdpi="176.25049"
     inkscape:export-ydpi="176.25049" />
  <path
     sodipodi:nodetypes="cc"
     inkscape:connector-curvature="0"
     id="path3815"
     d="m 152.27234,262.41503 c -0.79416,-6.28099 1.72654,-9.59382 4.48596,-12.69289"
     style="fill:none;stroke:#2d2d2d;stroke-width:1;stroke-linecap:round;stroke-linejoin:round;stroke-miterlimit:4;stroke-opacity:1;stroke-dasharray:none"
     inkscape:export-filename="/srv/http/PixHub/public/img/signin.png"
     inkscape:export-xdpi="176.25049"
     inkscape:export-ydpi="176.25049" />
  <path
     style="fill:none;stroke:#2d2d2d;stroke-width:1;stroke-linecap:round;stroke-linejoin:round;stroke-miterlimit:4;stroke-opacity:1;stroke-dasharray:none"
     d="m 149.66213,259.35129 c -0.5868,-4.89557 1.27572,-7.47767 3.31463,-9.89317"
     id="path3817"
     inkscape:connector-curvature="0"
     sodipodi:nodetypes="cc"
     inkscape:export-filename="/srv/http/PixHub/public/img/signin.png"
     inkscape:export-xdpi="176.25049"
     inkscape:export-ydpi="176.25049" />
  <path
     inkscape:export-ydpi="176.25049"
     inkscape:export-xdpi="176.25049"
     inkscape:export-filename="/srv/http/PixHub/public/img/signin.png"
     id="path3819"
     d="m 107.65142,212.07115 c -6.89577,0 -13.321533,1.92828 -18.781252,5.3125 3.72441,-1.09708 7.670282,-1.6875 11.750002,-1.6875 22.91969,0 41.5,18.5803 41.5,41.5 0.81599,-2.99725 1.28125,-6.15047 1.28125,-9.40625 0,-19.72984 -16.02016,-35.71875 -35.75,-35.71875 z"
     style="fill:#ffffff;fill-opacity:1;stroke:none"
     inkscape:connector-curvature="0" />
  <path
     inkscape:export-ydpi="176.25049"
     inkscape:export-xdpi="176.25049"
     inkscape:export-filename="/srv/http/PixHub/public/img/signin.png"
     sodipodi:nodetypes="sscsssss"
     inkscape:connector-curvature="0"
     id="path3821"
     d="m 158.35398,215.72349 c -0.80882,3.55244 -0.0271,7.14892 1.92247,10.22388 0.46028,0.72598 -1.43454,3.46494 -5.69001,4.95729 5.27915,0.73144 8.64219,-1.44355 9.43675,-0.80713 2.18094,1.74688 4.8635,3.07194 7.88708,3.76035 9.28587,2.11421 18.27188,-2.57701 20.07082,-10.47814 1.79893,-7.90113 -4.27043,-16.02017 -13.5563,-18.13438 -9.28586,-2.11422 -18.27187,2.57701 -20.07081,10.47813 z"
     style="fill:#0084c8;fill-opacity:1;stroke:none" />
  <text
     xml:space="preserve"
     style="font-size:10px;font-style:italic;font-variant:normal;font-weight:bold;font-stretch:normal;text-align:center;line-height:125%;letter-spacing:0px;word-spacing:0px;text-anchor:middle;fill:#ffffff;fill-opacity:1;stroke:none;font-family:Myriad Pro;-inkscape-font-specification:Myriad Pro Bold Italic"
     x="169.69653"
     y="223.2191"
     id="text3829"
     sodipodi:linespacing="125%"
     inkscape:export-filename="/srv/http/PixHub/public/img/signin.png"
     inkscape:export-xdpi="176.25049"
     inkscape:export-ydpi="176.25049"><tspan
       sodipodi:role="line"
       id="tspan3831"
       x="170.48755"
       y="223.2191" /></text>
  <path
     sodipodi:type="arc"
     style="fill:#ffffff;fill-opacity:1;stroke:none"
     id="path3833"
     sodipodi:cx="164.60867"
     sodipodi:cy="196.04965"
     sodipodi:rx="1.0695821"
     sodipodi:ry="1.0695821"
     d="m 165.67826,196.04965 a 1.0695821,1.0695821 0 1 1 -2.13917,0 1.0695821,1.0695821 0 1 1 2.13917,0 z"
     transform="matrix(1.4242641,0,0,1.4242641,-63.787073,-63.815316)"
     inkscape:export-filename="/srv/http/PixHub/public/img/signin.png"
     inkscape:export-xdpi="176.25049"
     inkscape:export-ydpi="176.25049" />
  <path
     transform="matrix(1.4242641,0,0,1.4242641,-55.013892,-62.151437)"
     d="m 165.67826,196.04965 a 1.0695821,1.0695821 0 1 1 -2.13917,0 1.0695821,1.0695821 0 1 1 2.13917,0 z"
     sodipodi:ry="1.0695821"
     sodipodi:rx="1.0695821"
     sodipodi:cy="196.04965"
     sodipodi:cx="164.60867"
     id="path3835"
     style="fill:#ffffff;fill-opacity:1;stroke:none"
     sodipodi:type="arc"
     inkscape:export-filename="/srv/http/PixHub/public/img/signin.png"
     inkscape:export-xdpi="176.25049"
     inkscape:export-ydpi="176.25049" />
  <path
     style="fill:none;stroke:#ffffff;stroke-width:1.60000002;stroke-linecap:round;stroke-linejoin:round;stroke-miterlimit:4;stroke-opacity:1;stroke-dasharray:none"
     d="m 166.69044,220.97595 c 3.30842,4.80377 11.21336,6.5863 15.27744,2.42018"
     id="path3837"
     inkscape:connector-curvature="0"
     sodipodi:nodetypes="cc"
     inkscape:export-filename="/srv/http/PixHub/public/img/signin.png"
     inkscape:export-xdpi="176.25049"
     inkscape:export-ydpi="176.25049" />
  <path
     inkscape:export-ydpi="176.25049"
     inkscape:export-xdpi="176.25049"
     inkscape:export-filename="/srv/http/PixHub/public/img/signin.png"
     transform="matrix(1.664557,0,0,0.50746276,155.98915,232.53489)"
     d="m -5.7479477,337.29623 a 23.899355,10.134537 0 1 1 -47.7987103,0 23.899355,10.134537 0 1 1 47.7987103,0 z"
     sodipodi:ry="10.134537"
     sodipodi:rx="23.899355"
     sodipodi:cy="337.29623"
     sodipodi:cx="-29.647303"
     id="path3839"
     style="opacity:0.3;fill:#000000;fill-opacity:1;stroke:none"
     sodipodi:type="arc" />
  <path
     style="font-size:medium;font-style:normal;font-variant:normal;font-weight:normal;font-stretch:normal;text-indent:0;text-align:start;text-decoration:none;line-height:normal;letter-spacing:normal;word-spacing:normal;text-transform:none;direction:ltr;block-progression:tb;writing-mode:lr-tb;text-anchor:start;baseline-shift:baseline;color:#000000;fill:#ffffff;fill-opacity:1;fill-rule:nonzero;stroke:none;stroke-width:4.04635811;marker:none;visibility:visible;display:inline;overflow:visible;enable-background:accumulate;font-family:Sans;-inkscape-font-specification:Sans"
     d="m 299.99999,213.98926 c -17.13524,0 -31.06413,14.01705 -31.06413,31.26074 0,17.24369 13.92889,31.26074 31.06413,31.26074 17.13525,0 31.06414,-14.01705 31.06414,-31.26074 0,-17.24369 -13.92889,-31.26074 -31.06414,-31.26074 z m 0,3.02148 c 15.51903,0 28.06166,12.62201 28.06166,28.23926 0,15.61725 -12.54263,28.23926 -28.06166,28.23926 -15.51903,0 -28.06165,-12.62201 -28.06165,-28.23926 0,-15.61725 12.54262,-28.23926 28.06165,-28.23926 z"
     id="path3023"
     inkscape:connector-curvature="0" />
  <path
     style="font-size:medium;font-style:normal;font-variant:normal;font-weight:normal;font-stretch:normal;text-indent:0;text-align:start;text-decoration:none;line-height:normal;letter-spacing:normal;word-spacing:normal;text-transform:none;direction:ltr;block-progression:tb;writing-mode:lr-tb;text-anchor:start;baseline-shift:baseline;color:#000000;fill:#ffffff;fill-opacity:1;fill-rule:nonzero;stroke:none;stroke-width:1.62133694;marker:none;visibility:visible;display:inline;overflow:visible;enable-background:accumulate;font-family:Sans;-inkscape-font-specification:Sans"
     d="m 300,219.99727 c -13.85128,0 -25.09178,11.3126 -25.09178,25.25273 0,13.94013 11.2405,25.25273 25.09178,25.25273 13.85128,0 25.09178,-11.3126 25.09178,-25.25273 0,-13.94013 -11.2405,-25.25273 -25.09178,-25.25273 z m 0,1.00546 c 13.31257,0 24.09272,10.84931 24.09272,24.24727 0,13.39796 -10.78015,24.24727 -24.09272,24.24727 -13.31257,0 -24.09272,-10.84931 -24.09272,-24.24727 0,-13.39796 10.78015,-24.24727 24.09272,-24.24727 z"
     id="path3025"
     inkscape:connector-curvature="0" />
  <path
     sodipodi:type="star"
     style="fill:#ffffff;fill-opacity:1;stroke:none"
     id="path3027"
     sodipodi:sides="7"
     sodipodi:cx="40"
     sodipodi:cy="40"
     sodipodi:r1="20"
     sodipodi:r2="9.2104149"
     sodipodi:arg1="0"
     sodipodi:arg2="-0.5162186"
     inkscape:flatsided="false"
     inkscape:rounded="0"
     inkscape:randomized="0"
     d="M 60,40 48.010223,35.453785 52.469796,55.63663 48.548666,43.428126 35.549581,59.498558 42.64979,48.821018 21.980623,48.677675 34.755567,47.571504 21.980623,31.322325 30.81051,40.620493 35.549581,20.501442 33.785326,33.202238 52.469796,24.36337 41.439918,30.902837 z"
     transform="translate(260,205)"
     inkscape:transform-center-x="-0.37183597"
     inkscape:transform-center-y="-0.74159249" />
  <g
     transform="matrix(-0.20108665,-0.2935551,0.2935551,-0.20108665,655.86963,452.26062)"
     id="g3954"
     style="opacity:0.48684211">
    <path
       style="fill:#cccccc;stroke:#ffffff;stroke-width:1"
       d="m 700.65625,162.28125 -142.8125,34.5 48.97399,96.05117 160.29069,-60.45994 z m -2.46875,5.4375 57.59375,61.53125 -145.375,53.4375 L 568.0625,200.75 z"
       id="path3956"
       inkscape:connector-curvature="0"
       sodipodi:nodetypes="cccccccccc" />
    <path
       inkscape:connector-curvature="0"
       id="path3958"
       d="m 568.05267,200.75213 42.34359,81.9386 145.39386,-53.43469 -57.61767,-61.52423 z"
       style="fill:#ffffff;stroke:#ffffff;stroke-width:4.50000000000000000;stroke-linecap:butt;stroke-linejoin:miter;stroke-miterlimit:4;stroke-opacity:1;stroke-dasharray:none"
       sodipodi:nodetypes="ccccc" />
    <path
       inkscape:connector-curvature="0"
       style="fill:#cccccc;stroke:none"
       d="m 683.09375,217.9375 -17.53125,35.09375 0.40625,9.21875 89.8125,-33 -6.65625,-7.125 -66.03125,-4.1875 z"
       id="path3960" />
    <path
       inkscape:connector-curvature="0"
       style="fill:#cccccc;stroke:none"
       d="m 625,227.03125 c 0,0 -18.94491,17.81303 -29.21875,27.3125 l 14.625,28.34375 101.5,-37.3125 L 625,227.03125 z"
       id="path3962" />
    <path
       sodipodi:type="arc"
       style="fill:#cccccc;fill-opacity:1;stroke:none"
       id="path3964"
       sodipodi:cx="678.50354"
       sodipodi:cy="194.30374"
       sodipodi:rx="17.220903"
       sodipodi:ry="12.700416"
       d="m 695.72444,194.30374 c 0,7.01425 -7.71006,12.70042 -17.2209,12.70042 -9.51084,0 -17.2209,-5.68617 -17.2209,-12.70042 0,-7.01424 7.71006,-12.70041 17.2209,-12.70041 9.51084,0 17.2209,5.68617 17.2209,12.70041 z" />
  </g>
  <g
     id="g4014"
     transform="translate(61.134204,-28.414489)">
    <path
       id="path3016"
       d="m 468.8125,234.40625 c -21.81525,0 -39.5,17.79668 -39.5,39.75 0,14.03094 7.21582,26.36341 18.125,33.4375 -2.33687,-0.58238 -6.21094,-3.06015 -14.03125,-11.96875 -15.34241,-17.4775 -25.68301,-7.92525 -28.25,-6 -7.90183,5.92637 -13.25,23.53125 -13.25,23.53125 L 386.125,322.375 c 0,0 -0.69801,7.0814 3.84375,9.40625 3.35833,1.71907 5.92541,2.67582 10.90625,2.34375 1.41297,-0.0942 1.81438,-1.763 2.5,-4.125 -0.43758,0.10547 -0.90833,0.14451 -1.34375,0.0937 -0.60092,-0.009 -0.60513,-0.18058 -1.21875,0.125 -0.61919,0.22473 -0.7033,0.54229 -0.6875,1.15625 0.008,0.51895 -0.75309,0.72169 -1,0.25 -0.23655,-0.45921 -0.0738,-0.97821 -0.0625,-1.46875 0.0729,-0.66105 -0.15041,-1.40184 0.21875,-2 -0.005,-0.63529 0.48725,-2.24301 0.21875,-2.84375 0.29167,-0.14583 0.20833,0.64583 0.5,0.5 0.38883,0.75846 0.4127,1.63529 0.375,2.46875 0.45294,0.48142 1.09696,0.7534 1.75,0.8125 0.52594,0.0435 1.10651,-0.037 1.59375,-0.28125 0.11277,-0.35496 0.23935,-0.72009 0.375,-1.09375 0.89471,-2.46449 -5.78125,-8.125 -5.78125,-8.125 0,0 -5.54924,-4.2781 4.71875,-17.96875 10.26799,-13.69065 16.25,-9.40625 16.25,-9.40625 0,0 14.10049,21.80193 10.25,33.78125 -3.8505,11.97931 -33.366,26.96784 -38.5,39.375 -5.13399,12.40715 28.25,18.59375 28.25,18.59375 0,0 -6.64142,9.8415 -3.21875,11.125 3.42266,1.2835 11.34375,-8.5625 11.34375,-8.5625 0,0 4.7019,-1.04451 -15.40625,-11.3125 -20.10814,-10.26799 18.40625,-28.6875 18.40625,-28.6875 0,0 9.39209,6.85702 11.53125,17.125 2.13916,10.26799 -11.96875,46.1875 -11.96875,46.1875 0,0 -5.48334,17.39669 -6.625,21.84375 -1.14165,4.44706 0.90988,9.55014 3.625,8.34375 2.71511,-1.20639 7.85958,-2.24737 9.40625,-5.78125 1.54667,-3.53388 -1.28125,-22.25 -1.28125,-22.25 0,0 14.96009,-33.66018 22.875,-46.28125 9.87918,-15.75328 19.645,-36.94492 26.0625,-38.65625 6.41749,-1.71133 67.17536,-37.71375 67.875,-52.40625 l 5.125,-4.6875 c 0,0 6.36492,-9.43186 6.84375,-12.84375 0.47883,-3.41189 -0.77499,-4.14495 -1.28125,-6 -0.37013,-1.35623 -0.97238,-2.37744 -1.375,-3.625 -0.79845,-0.45774 -1.39684,0.10241 -1.53125,0.75 -0.37512,0.83875 -0.0212,1.42987 0.0312,2.3125 0.17362,2.67429 -0.282,3.32224 -0.53125,5.34375 -0.18694,1.51614 -0.76571,2.63406 -0.9375,2.875 0.006,-0.0192 -0.014,-0.0306 0,-0.0625 0.19622,-2.15165 0.74691,-4.41825 0.5625,-6.5625 -0.0854,-1.44409 -0.33337,-2.97637 0.15625,-4.375 0.23539,-0.83873 1.14716,-1.38176 2,-1.21875 -0.0378,-0.18444 -0.0679,-0.36436 -0.0937,-0.5625 -0.24994,-1.91676 -1.11316,-5.58562 -1.96875,-7.375 -1.07068,-0.79004 -1.88851,-0.0571 -2.0625,0.78125 -0.4535,1.01392 -9e-4,1.74554 0.0625,2.8125 0.20987,3.2328 -0.35495,3.99381 -0.65625,6.4375 -0.30131,2.4437 -1.44387,4.062 -1.15625,3.40625 0.2372,-2.60101 0.91042,-5.34544 0.6875,-7.9375 -0.10319,-1.74569 -0.40438,-3.59052 0.1875,-5.28125 0.27866,-0.99291 1.33246,-1.62734 2.34375,-1.46875 -0.33124,-0.76065 -0.59834,-1.28995 -1.5625,-1.3125 -0.44191,-0.0103 -1.03672,0.0912 -1.84375,0.3125 -2.78866,0.76469 -2.77305,10.18414 -4.25,13.15625 0.11242,-0.0256 0.21945,-0.0653 0.34375,-0.0625 0.16162,0.0153 0.3157,0.0389 0.46875,0.0937 0.73958,0.40634 1.1827,1.2232 1.875,1.71875 0.58267,0.56831 1.45703,1.34078 1.09375,2.25 -0.54468,0.91378 -1.71087,1.02798 -2.53125,1.59375 -0.87002,0.606 -1.47892,1.25304 -2.28125,2.03125 -0.78916,0.97098 -1.70485,3.54327 -1.71875,2.875 0.14561,-1.18207 1.52857,-4.59183 2.46875,-5.1875 0.77882,-0.53639 1.91306,-0.88481 2.15625,-1.90625 -0.004,-0.95538 -0.75652,-1.67807 -1.34375,-2.34375 -0.30413,-0.28158 -1.05664,-0.11622 -1.4375,-0.15625 -0.0109,-0.001 -0.0209,0.002 -0.0312,0 -2.35674,0.65779 -5.15625,1.875 -5.15625,1.875 -1.19498,1.19498 -2.84159,-3.25534 -0.78125,15.9375 2.87381,26.77068 -72.95233,49.63691 -76.375,48.78125 -1.46603,-0.36651 -1.6451,-1.75111 -1.40625,-3.21875 0.92742,0.0655 1.86851,0.0937 2.8125,0.0937 21.81525,0 39.5,-17.79668 39.5,-39.75 0,-21.95332 -17.68475,-39.75 -39.5,-39.75 z"
       style="fill:#cccccc;stroke:#ffffff;stroke-width:1;stroke-linecap:round;stroke-linejoin:round;stroke-miterlimit:4;stroke-opacity:1;stroke-dasharray:none;stroke-dashoffset:0"
       inkscape:connector-curvature="0" />
    <path
       sodipodi:nodetypes="cccc"
       inkscape:connector-curvature="0"
       id="path3871"
       d="m 550.13367,271.08999 4.56638,-4.56637 c 47.14224,45.92657 -10.17989,101.08623 -91.0232,98.93826 72.54891,1.07344 131.07483,-49.03996 86.45682,-94.37189 z"
       style="fill:url(#linearGradient3944);fill-opacity:1;stroke:none" />
    <path
       inkscape:connector-curvature="0"
       id="path3018"
       d="m 472.22549,247.30585 c -11.70704,0 -21.22234,9.59067 -21.22234,21.3718 0,11.78114 9.5153,21.35045 21.22234,21.35045 11.70705,0 21.22235,-9.56931 21.22235,-21.35045 0,-11.78113 -9.5153,-21.3718 -21.22235,-21.3718 z m 0,2.071 c 10.60283,0 19.17271,8.63087 19.17271,19.3008 0,10.66993 -8.56988,19.27946 -19.17271,19.27946 -10.60282,0 -19.1727,-8.60953 -19.1727,-19.27946 0,-10.66993 8.56988,-19.3008 19.1727,-19.3008 z m 0,2.04964 c -9.46339,0 -17.1444,7.72707 -17.1444,17.25116 0,9.5241 7.68101,17.25116 17.1444,17.25116 9.4634,0 17.14441,-7.72706 17.14441,-17.25116 0,-9.52409 -7.68101,-17.25116 -17.14441,-17.25116 z m 0,0.68321 c 9.09534,0 16.4612,7.41427 16.4612,16.56795 0,9.15368 -7.36586,16.56795 -16.4612,16.56795 -9.09533,0 -16.46119,-7.41427 -16.46119,-16.56795 0,-9.15368 7.36586,-16.56795 16.46119,-16.56795 z m -3.03176,3.07447 -3.24527,13.74969 -6.04217,-6.36244 8.73233,11.10224 -8.73233,0.74726 14.13399,0.10675 -4.84655,7.30186 8.88179,-10.99548 2.6688,8.34802 -3.05311,-13.79239 8.19857,3.11717 -12.68216,-6.21298 7.5367,-4.4836 -12.76756,6.04218 1.21697,-8.66828 z"
       style="font-size:medium;font-style:normal;font-variant:normal;font-weight:normal;font-stretch:normal;text-indent:0;text-align:start;text-decoration:none;line-height:normal;letter-spacing:normal;word-spacing:normal;text-transform:none;direction:ltr;block-progression:tb;writing-mode:lr-tb;text-anchor:start;baseline-shift:baseline;color:#000000;fill:#ffffff;fill-opacity:1;fill-rule:nonzero;stroke:none;stroke-width:4.04635811;marker:none;visibility:visible;display:inline;overflow:visible;enable-background:accumulate;font-family:Sans;-inkscape-font-specification:Sans" />
    <path
       style="fill:url(#linearGradient3952);fill-opacity:1;stroke:none"
       d="m 556.5266,264.39263 1.52213,-1.21769 c 51.00713,49.4428 -9.38649,108.60219 -93.76303,107.15775 76.6811,2.23401 142.07284,-54.23555 92.2409,-105.94006 z"
       id="path3873"
       inkscape:connector-curvature="0"
       sodipodi:nodetypes="cccc" />
    <path
       inkscape:export-ydpi="176.25049"
       inkscape:export-xdpi="176.25049"
       inkscape:export-filename="/srv/http/PixHub/public/img/signin.png"
       id="path3033"
       d="m 468.74232,238.16895 c -6.89577,0 -13.32153,1.92828 -18.78125,5.3125 3.72441,-1.09708 7.67028,-1.6875 11.75,-1.6875 22.91969,0 41.5,18.5803 41.5,41.5 0.81599,-2.99725 1.28125,-6.15047 1.28125,-9.40625 0,-19.72984 -16.02016,-35.71875 -35.75,-35.71875 z"
       style="fill:#ffffff;fill-opacity:1;stroke:none"
       inkscape:connector-curvature="0" />
  </g>
  <g
     id="g3990"
     transform="matrix(0.19503445,-0.63599181,-0.63599181,-0.19503445,613.39156,625.78743)"
     style="opacity:0.69736842">
    <path
       sodipodi:nodetypes="cccccccccc"
       inkscape:connector-curvature="0"
       id="path3992"
       d="m 700.65625,162.28125 -142.8125,34.5 48.97399,96.05117 160.29069,-60.45994 z m -2.46875,5.4375 57.59375,61.53125 -145.375,53.4375 L 568.0625,200.75 z"
       style="fill:#cccccc;stroke:#ffffff;stroke-width:1" />
    <path
       sodipodi:nodetypes="ccccc"
       style="fill:#ffffff;stroke:#ffffff;stroke-width:4.50000000000000000;stroke-linecap:butt;stroke-linejoin:miter;stroke-miterlimit:4;stroke-opacity:1;stroke-dasharray:none"
       d="m 568.05267,200.75213 42.34359,81.9386 145.39386,-53.43469 -57.61767,-61.52423 z"
       id="path3994"
       inkscape:connector-curvature="0" />
    <path
       id="path3996"
       d="m 683.09375,217.9375 -17.53125,35.09375 0.40625,9.21875 89.8125,-33 -6.65625,-7.125 -66.03125,-4.1875 z"
       style="fill:#cccccc;stroke:none"
       inkscape:connector-curvature="0" />
    <path
       id="path3998"
       d="m 625,227.03125 c 0,0 -18.94491,17.81303 -29.21875,27.3125 l 14.625,28.34375 101.5,-37.3125 L 625,227.03125 z"
       style="fill:#cccccc;stroke:none"
       inkscape:connector-curvature="0" />
    <path
       d="m 695.72444,194.30374 c 0,7.01425 -7.71006,12.70042 -17.2209,12.70042 -9.51084,0 -17.2209,-5.68617 -17.2209,-12.70042 0,-7.01424 7.71006,-12.70041 17.2209,-12.70041 9.51084,0 17.2209,5.68617 17.2209,12.70041 z"
       sodipodi:ry="12.700416"
       sodipodi:rx="17.220903"
       sodipodi:cy="194.30374"
       sodipodi:cx="678.50354"
       id="path4000"
       style="fill:#cccccc;fill-opacity:1;stroke:none"
       sodipodi:type="arc" />
  </g>
  <g
     id="g3905"
     transform="translate(39.608076,-64.578385)">
    <path
       sodipodi:nodetypes="cccccccccc"
       inkscape:connector-curvature="0"
       id="path3081"
       d="m 700.65625,162.28125 -142.8125,34.5 48.97399,96.05117 160.29069,-60.45994 z m -2.46875,5.4375 57.59375,61.53125 -145.375,53.4375 L 568.0625,200.75 z"
       style="fill:#cccccc;stroke:#ffffff" />
    <path
       sodipodi:nodetypes="ccccc"
       style="fill:#ffffff;stroke:#ffffff;stroke-width:4.5;stroke-linecap:butt;stroke-linejoin:miter;stroke-miterlimit:4;stroke-opacity:1;stroke-dasharray:none"
       d="m 568.05267,200.75213 42.34359,81.9386 145.39386,-53.43469 -57.61767,-61.52423 z"
       id="path3083"
       inkscape:connector-curvature="0" />
    <path
       id="path3094"
       d="m 683.09375,217.9375 -17.53125,35.09375 0.40625,9.21875 89.8125,-33 -6.65625,-7.125 -66.03125,-4.1875 z"
       style="fill:#cccccc;stroke:none"
       inkscape:connector-curvature="0" />
    <path
       id="path3085"
       d="m 625,227.03125 c 0,0 -18.94491,17.81303 -29.21875,27.3125 l 14.625,28.34375 101.5,-37.3125 L 625,227.03125 z"
       style="fill:#cccccc;stroke:none"
       inkscape:connector-curvature="0" />
    <path
       d="m 695.72444,194.30374 c 0,7.01425 -7.71006,12.70042 -17.2209,12.70042 -9.51084,0 -17.2209,-5.68617 -17.2209,-12.70042 0,-7.01424 7.71006,-12.70041 17.2209,-12.70041 9.51084,0 17.2209,5.68617 17.2209,12.70041 z"
       sodipodi:ry="12.700416"
       sodipodi:rx="17.220903"
       sodipodi:cy="194.30374"
       sodipodi:cx="678.50354"
       id="path3099"
       style="fill:#cccccc;fill-opacity:1;stroke:none"
       sodipodi:type="arc" />
  </g>
</svg>
