<?xml version="1.0" encoding="UTF-8" standalone="no"?>
<!-- Created with Inkscape (http://www.inkscape.org/) -->

<svg
   xmlns:dc="http://purl.org/dc/elements/1.1/"
   xmlns:cc="http://creativecommons.org/ns#"
   xmlns:rdf="http://www.w3.org/1999/02/22-rdf-syntax-ns#"
   xmlns:svg="http://www.w3.org/2000/svg"
   xmlns="http://www.w3.org/2000/svg"
   xmlns:sodipodi="http://sodipodi.sourceforge.net/DTD/sodipodi-0.dtd"
   xmlns:inkscape="http://www.inkscape.org/namespaces/inkscape"
   width="276.37573"
   height="80"
   id="svg2"
   version="1.1"
   inkscape:version="0.48.5 r10040"
   sodipodi:docname="logo.svg">
  <defs
     id="defs4" />
  <sodipodi:namedview
     id="base"
     pagecolor="#ffffff"
     bordercolor="#666666"
     borderopacity="1.0"
     inkscape:pageopacity="0.0"
     inkscape:pageshadow="2"
     inkscape:zoom="0.9899495"
     inkscape:cx="-59.244323"
     inkscape:cy="-17.295999"
     inkscape:document-units="px"
     inkscape:current-layer="layer1"
     showgrid="true"
     inkscape:snap-bbox="true"
     inkscape:bbox-nodes="true"
     fit-margin-top="0"
     fit-margin-left="0"
     fit-margin-right="0"
     fit-margin-bottom="0"
     inkscape:window-width="1920"
     inkscape:window-height="1018"
     inkscape:window-x="0"
     inkscape:window-y="32"
     inkscape:window-maximized="1"
     inkscape:snap-global="false">
    <inkscape:grid
       type="xygrid"
       id="grid2985"
       empspacing="5"
       visible="true"
       enabled="true"
       snapvisiblegridlinesonly="true"
       empcolor="#808080"
       empopacity="0.25098039"
       color="#808080"
       opacity="0.1254902"
       originx="-120px"
       originy="-1920px" />
  </sodipodi:namedview>
  <metadata
     id="metadata7">
    <rdf:RDF>
      <cc:Work
         rdf:about="">
        <dc:format>image/svg+xml</dc:format>
        <dc:type
           rdf:resource="http://purl.org/dc/dcmitype/StillImage" />
        <dc:title></dc:title>
      </cc:Work>
    </rdf:RDF>
  </metadata>
  <g
     inkscape:label="Calque 1"
     inkscape:groupmode="layer"
     id="layer1"
     transform="translate(-60,-12.36218)">
    <path
       style="font-size:64.76914215px;font-style:normal;font-variant:normal;font-weight:normal;font-stretch:normal;text-align:center;line-height:125%;letter-spacing:0px;word-spacing:0px;text-anchor:middle;fill:#1a1a1a;fill-opacity:1;stroke:none;font-family:Felipe;-inkscape-font-specification:Felipe"
       d="M 40 0 C 17.90861 0 0 17.90861 0 40 C 0 62.09139 17.90861 80 40 80 C 62.09139 80 80 62.09139 80 40 C 80 17.90861 62.09139 -9.4739031e-15 40 0 z M 40 1.21875 C 61.413331 1.21875 78.78125 18.586665 78.78125 40 C 78.78125 61.413335 61.413331 78.78125 40 78.78125 C 18.586665 78.78125 1.21875 61.413335 1.21875 40 C 1.21875 18.586665 18.586665 1.21875 40 1.21875 z M 40 2.21875 C 19.127104 2.21875 2.21875 19.127104 2.21875 40 C 2.21875 60.872896 19.127104 77.78125 40 77.78125 C 60.872891 77.78125 77.78125 60.872896 77.78125 40 C 77.78125 19.127104 60.872891 2.21875 40 2.21875 z M 40 8.875 C 57.17465 8.875 71.125 22.825347 71.125 40 C 71.125 57.174652 57.17465 71.125 40 71.125 C 22.825347 71.125 8.875 57.174652 8.875 40 C 8.875 22.825347 22.825347 8.875 40 8.875 z M 40 11.875 C 24.446667 11.875 11.875 24.446667 11.875 40 C 11.875 55.553332 24.446667 68.125 40 68.125 C 55.55333 68.125 68.125 55.553332 68.125 40 C 68.125 24.446667 55.55333 11.875 40 11.875 z M 40 12.84375 C 54.984661 12.84375 67.15625 25.015336 67.15625 40 C 67.15625 54.984665 54.984661 67.15625 40 67.15625 C 25.015336 67.15625 12.84375 54.984665 12.84375 40 C 12.84375 25.015336 25.015336 12.84375 40 12.84375 z M 40 13.84375 C 25.555776 13.84375 13.84375 25.555776 13.84375 40 C 13.84375 54.444225 25.555776 66.15625 40 66.15625 C 54.444221 66.15625 66.15625 54.444225 66.15625 40 C 66.15625 32.405671 62.920059 25.559908 57.75 20.78125 C 58.116327 21.326357 58.402525 21.932463 58.625 22.5625 C 62.904495 27.128414 65.53125 33.250582 65.53125 40 C 65.53125 54.097063 54.09706 65.53125 40 65.53125 C 25.902936 65.53125 14.46875 54.097063 14.46875 40 C 14.46875 25.902936 25.902936 14.46875 40 14.46875 C 44.230142 14.46875 48.205155 15.521597 51.71875 17.34375 C 52.366093 17.381857 52.998371 17.470052 53.59375 17.65625 C 49.631003 15.239316 44.980614 13.84375 40 13.84375 z M 135.5 15 L 135.5 21.125 L 141.96875 21.125 L 141.96875 15 L 135.5 15 z M 249.25 15 L 249.25 64.34375 L 256.875 64.34375 L 257.46875 60.5 C 258.33317 61.954778 259.37089 63.094905 260.59375 63.875 C 261.81659 64.634014 263.2617 64.999999 264.90625 65 C 268.65913 64.999999 271.49777 63.463388 273.4375 60.40625 C 275.39826 57.349119 276.37497 53.259269 276.375 48.09375 L 276.375 47.40625 C 276.37497 41.945593 275.39826 37.590667 273.4375 34.34375 C 271.49777 31.096893 268.64897 29.500035 264.875 29.5 C 263.4413 29.500035 262.14867 29.805023 261.03125 30.4375 C 259.9138 31.070044 258.94725 31.975595 258.125 33.15625 L 258.125 15 L 249.25 15 z M 40 15.46875 C 26.443376 15.46875 15.46875 26.443376 15.46875 40 C 15.46875 47.106071 18.490426 53.490284 23.3125 57.96875 C 23.238062 57.681283 23.192479 57.372256 23.1875 57.0625 C 18.780789 52.719811 16.0625 46.668145 16.0625 40 C 16.0625 26.790536 26.790536 16.0625 40 16.0625 C 43.08886 16.0625 46.037949 16.65098 48.75 17.71875 C 49.046554 17.618894 49.344973 17.53279 49.65625 17.46875 C 46.693001 16.199837 43.429648 15.46875 40 15.46875 z M 40 17.0625 C 27.330976 17.0625 17.0625 27.330976 17.0625 40 C 17.0625 46.132437 19.486697 51.697319 23.40625 55.8125 C 23.904097 54.286428 25.306285 53.1875 27 53.1875 C 27.126502 53.1875 27.251683 53.206751 27.375 53.21875 L 37.96875 48.59375 L 18.5625 36.78125 L 32.03125 43.84375 L 29.1875 21.34375 L 32.03125 36.28125 L 43.4375 24.53125 C 43.655339 21.863365 45.19409 19.563471 47.40625 18.3125 C 45.078183 17.516861 42.597758 17.0625 40 17.0625 z M 100 18.28125 L 100 64.34375 L 106.40625 64.34375 L 106.40625 46.1875 L 114.96875 46.1875 C 119.33306 46.187518 122.75193 44.894898 125.21875 42.34375 C 127.7066 39.792646 128.93747 36.445685 128.9375 32.25 C 128.93747 28.075462 127.7066 24.707418 125.21875 22.15625 C 122.75193 19.584083 119.33306 18.281296 114.96875 18.28125 L 100 18.28125 z M 178.21875 18.28125 L 178.21875 64.34375 L 187.125 64.34375 L 187.125 45.125 L 201.96875 45.125 L 201.96875 64.34375 L 210.84375 64.34375 L 210.84375 18.28125 L 201.96875 18.28125 L 201.96875 38.1875 L 187.125 38.1875 L 187.125 18.28125 L 178.21875 18.28125 z M 106.40625 23.21875 L 114.96875 23.21875 C 117.47769 23.218791 119.35995 24.083676 120.625 25.8125 C 121.91108 27.5414 122.56247 29.719239 122.5625 32.3125 C 122.56247 34.884741 121.91108 37.010997 120.625 38.71875 C 119.33887 40.40547 117.45661 41.250023 114.96875 41.25 L 106.40625 41.25 L 106.40625 23.21875 z M 59.0625 24.5625 C 59.078417 24.767194 59.09375 24.978784 59.09375 25.1875 C 59.09375 25.31249 59.099501 25.43896 59.09375 25.5625 C 62.138467 29.578097 63.9375 34.577913 63.9375 40 C 63.9375 53.209463 53.20946 63.9375 40 63.9375 C 35.615423 63.9375 31.504962 62.749853 27.96875 60.6875 C 27.671602 60.764445 27.352063 60.809922 27.03125 60.8125 C 30.794326 63.160669 35.233999 64.53125 40 64.53125 C 53.55662 64.53125 64.53125 53.556624 64.53125 40 C 64.53125 34.142264 62.483472 28.779022 59.0625 24.5625 z M 43.40625 25.1875 L 37.96875 31.53125 L 48.625 32.5625 C 45.581507 31.484889 43.40625 28.605206 43.40625 25.1875 z M 58.875 27 C 58.144447 30.110489 55.583479 32.480854 52.375 32.9375 L 60.5625 33.75 L 45.34375 33.21875 L 57.6875 52.28125 L 48.65625 40.0625 L 41.4375 61.59375 L 45.34375 46.90625 L 27.875 53.28125 C 29.565044 53.672461 30.8125 55.189876 30.8125 57 C 30.8125 58.33306 30.128179 59.506166 29.09375 60.1875 C 32.335249 61.940689 36.055705 62.9375 40 62.9375 C 52.66902 62.9375 62.9375 52.669023 62.9375 40 C 62.9375 35.162955 61.430815 30.699283 58.875 27 z M 135.5 30.125 L 135.5 64.34375 L 141.96875 64.34375 L 141.96875 30.125 L 135.5 30.125 z M 147.46875 30.125 L 156.71875 47 L 147.1875 64.34375 L 154.53125 64.34375 L 160.28125 51.4375 L 160.46875 51.4375 L 166.25 64.34375 L 173.59375 64.34375 L 164 47 L 173.28125 30.125 L 165.875 30.125 L 160.375 42.59375 L 160.1875 42.59375 L 154.75 30.125 L 147.46875 30.125 z M 217.15625 30.125 L 217.15625 49.84375 C 217.15625 55.009267 218.03129 58.845712 219.78125 61.3125 C 221.55227 63.779294 223.95302 64.999999 227.03125 65 C 228.82335 64.999999 230.40063 64.511267 231.75 63.5625 C 233.12042 62.592652 234.24963 61.239784 235.15625 59.46875 L 236.15625 64.34375 L 243.46875 64.34375 L 243.46875 30.125 L 234.5 30.125 L 234.5 55.6875 C 233.9518 56.446521 233.28007 57.036917 232.5 57.4375 C 231.71988 57.817013 230.81433 58.000007 229.78125 58 C 228.49513 58.000007 227.54891 57.44086 226.9375 56.28125 C 226.34714 55.100571 226.06249 52.963398 226.0625 49.90625 L 226.0625 30.125 L 217.15625 30.125 z M 262.59375 36.5 C 264.4491 36.500028 265.71047 37.45641 266.40625 39.375 C 267.10199 41.29364 267.46873 43.969627 267.46875 47.40625 L 267.46875 48.09375 C 267.46873 51.340654 267.11216 53.782064 266.4375 55.46875 C 265.7628 57.155453 264.50143 58.000007 262.625 58 C 261.54972 58.000007 260.64417 57.796681 259.90625 57.375 C 259.16831 56.93225 258.56775 56.27069 258.125 55.40625 L 258.125 39.5 C 258.56775 38.551259 259.16831 37.808369 259.90625 37.28125 C 260.66525 36.754185 261.56064 36.500028 262.59375 36.5 z "
       transform="translate(60,12.36218)"
       id="path3042" />
  </g>
</svg>
